HIERARCHY
ROOT Hips
{
  OFFSET 50.5382 96.8174 1.06909
  CHANNELS 6 Xposition Yposition Zposition Zrotation Xrotation Yrotation
  JOINT spine
  {
    OFFSET 0 7.96568 0.458067
    CHANNELS 3 Zrotation Xrotation Yrotation
    JOINT spine1
    {
      OFFSET 0 10.2431 0
      CHANNELS 3 Zrotation Xrotation Yrotation
      JOINT spine2
      {
        OFFSET 0 9.81475 0
        CHANNELS 3 Zrotation Xrotation Yrotation
        JOINT Neck
        {
          OFFSET 0 25.1986 1.20138
          CHANNELS 3 Zrotation Xrotation Yrotation
          JOINT Head
          {
            OFFSET 0 7.61315 0
            CHANNELS 3 Zrotation Xrotation Yrotation
            End Site
            {
              OFFSET 0 18.4281 -6.07733
            }
          }
        }
        JOINT RightShoulder
        {
          OFFSET -4.1327 10.5992 -0.575451
          CHANNELS 3 Zrotation Xrotation Yrotation
          JOINT RightArm
          {
            OFFSET 0 13.9018 0
            CHANNELS 3 Zrotation Xrotation Yrotation
            JOINT RightArmRoll
            {
              OFFSET 0 7.01788 0
              CHANNELS 3 Zrotation Xrotation Yrotation
              JOINT RightForeArm
              {
                OFFSET 0 20.4406 0
                CHANNELS 3 Zrotation Xrotation Yrotation
                JOINT RightForeArmRoll
                {
                  OFFSET 0 7.87515 0
                  CHANNELS 3 Zrotation Xrotation Yrotation
                  JOINT RightHand
                  {
                    OFFSET 0 15.8037 0
                    CHANNELS 3 Zrotation Xrotation Yrotation
                    End Site
                    {
                      OFFSET 0 0 0
                    }
                  }
                }
              }
            }
          }
        }
        JOINT LeftShoulder
        {
          OFFSET 4.1327 10.5992 -0.575451
          CHANNELS 3 Zrotation Xrotation Yrotation
          JOINT LeftArm
          {
            OFFSET 0 13.9018 0
            CHANNELS 3 Zrotation Xrotation Yrotation
            JOINT LeftArmRoll
            {
              OFFSET 0 7.01789 0
              CHANNELS 3 Zrotation Xrotation Yrotation
              JOINT LeftForeArm
              {
                OFFSET 0 20.4406 0
                CHANNELS 3 Zrotation Xrotation Yrotation
                JOINT LeftForeArmRoll
                {
                  OFFSET 0 7.87516 0
                  CHANNELS 3 Zrotation Xrotation Yrotation
                  JOINT LeftHand
                  {
                    OFFSET 0 15.8037 0
                    CHANNELS 3 Zrotation Xrotation Yrotation
                    End Site
                    {
                      OFFSET 0 0 0
                    }
                  }
                }
              }
            }
          }
        }
      }
    }
  }
  JOINT RightUpLeg
  {
    OFFSET -7.06048 -1.2947 -1.08609
    CHANNELS 3 Zrotation Xrotation Yrotation
    JOINT RightUpLegRoll
    {
      OFFSET 0 18.5308 0
      CHANNELS 3 Zrotation Xrotation Yrotation
      JOINT RightLeg
      {
        OFFSET 0 -22.9476 0
        CHANNELS 3 Zrotation Xrotation Yrotation
        JOINT RightLegRoll
        {
          OFFSET 0 23.0226 0
          CHANNELS 3 Zrotation Xrotation Yrotation
          JOINT RightFoot
          {
            OFFSET 0 19.1625 0
            CHANNELS 3 Zrotation Xrotation Yrotation
            JOINT RightToeBase
            {
              OFFSET 0 16.0188 0
              CHANNELS 3 Zrotation Xrotation Yrotation
              End Site
              {
                OFFSET 0.00678979 7.75782 -0.894206
              }
            }
          }
        }
      }
    }
  }
  JOINT LeftUpLeg
  {
    OFFSET 7.06048 -1.2947 -1.08609
    CHANNELS 3 Zrotation Xrotation Yrotation
    JOINT LeftUpLegRoll
    {
      OFFSET 0 18.5309 0
      CHANNELS 3 Zrotation Xrotation Yrotation
      JOINT LeftLeg
      {
        OFFSET 0 22.9475 0
        CHANNELS 3 Zrotation Xrotation Yrotation
        JOINT LeftLegRoll
        {
          OFFSET 0 23.2355 0
          CHANNELS 3 Zrotation Xrotation Yrotation
          JOINT LeftFoot
          {
            OFFSET 0 18.9496 0
            CHANNELS 3 Zrotation Xrotation Yrotation
            JOINT LeftToeBase
            {
              OFFSET 0 16.0188 0
              CHANNELS 3 Zrotation Xrotation Yrotation
              End Site
              {
                OFFSET -0.0304289 7.75781 -0.894207
              }
            }
          }
        }
      }
    }
  }
}
MOTION
Frames: 4
Frame Time: 0.00208333
55.7978 119.187 6.63206 2.22673 -0.19867 1.9014 0.354363 -0.524575 -0.248689 0.720801 2.9519 -0.540695 0.728167 4.59686 -0.553274 -7.52304 -9.5205 -3.99471 8.92367 17.6965 -5.18039 65.8771 -6.70607 -4.45767 104.497 8.17472 -15.1563 1.1003e-005 5.74642e-007 3.33813e-006 17.4421 59.5426 -13.0061 -7.13593e-006 -9.0436e-006 -3 8.02895 -4.95145 0.697675 -52.74 -1.08397 -0.0213214 -113.419 5.66508 22.3108 1.64399e-005 -3.64234e-006 -3.06082e-007 -26.6757 83.8017 30.3203 5.53676e-006 9.00343e-007 3 -8.02907 -4.95144 -0.697671 174.868 3.60666 3.0588 180 7.01507e-015 178.761 179.891 11.6564 179.321 -2.93912e-006 3.13612e-006 0.00451249 -17.0805 65.6524 17.7681 8.13649 25.2326 -3.48774 -175.121 10.4637 -1.4667 4.5067e-006 -1.99009e-005 -1.11572 -1.5584 -22.0021 0.315912 -1.37232e-006 -3.99963e-006 -0.351195 19.2136 68.6242 -20.0677 -8.13649 25.2326 3.48774 
55.7721 118.942 6.61901 2.23978 -0.204313 1.87986 0.354162 -0.52936 -0.245087 0.71971 2.94235 -0.533406 0.726985 4.58731 -0.545958 -7.77726 -9.34646 -4.00687 9.23687 17.4837 -5.22032 65.8066 -6.66113 -4.4302 104.614 8.15958 -15.0233 1.1003e-005 5.74642e-007 3.33813e-006 17.3722 59.4933 -12.9504 -7.13593e-006 -9.0436e-006 -3 8.02895 -4.95145 0.697675 -52.8414 -1.09216 -0.00346857 -113.322 5.64808 22.2096 1.64399e-005 -3.64234e-006 -3.06082e-007 -26.3902 83.6862 29.9933 5.53676e-006 9.00343e-007 3 -8.02907 -4.95144 -0.697671 174.852 3.60937 3.06955 180 7.01507e-015 178.76 179.897 11.7144 179.318 -2.93912e-006 3.13612e-006 0.0058124 -17.0861 65.6596 17.7728 8.13649 25.2326 -3.48774 -175.118 10.4583 -1.4667 4.5067e-006 -1.99009e-005 -1.11738 -1.5445 -22.0602 0.319121 -1.37232e-006 -3.99963e-006 -0.352261 19.2106 68.6186 -20.0629 -8.13649 25.2326 3.48774 
55.7751 118.754 6.59798 2.25379 -0.210919 1.85861 0.354013 -0.533877 -0.241459 0.718593 2.93334 -0.526067 0.725777 4.5783 -0.538593 -8.04529 -9.163 -4.01919 9.56747 17.2549 -5.26149 65.7352 -6.6141 -4.40151 104.727 8.13988 -14.8944 1.1003e-005 5.74642e-007 3.33813e-006 17.3027 59.4545 -12.8981 -7.13593e-006 -9.0436e-006 -3 8.02895 -4.95145 0.697675 -52.9474 -1.09709 0.0126365 -113.22 5.62964 22.1025 1.64399e-005 -3.64234e-006 -3.06082e-007 -26.1259 83.5781 29.6899 5.53676e-006 9.00343e-007 3 -8.02907 -4.95144 -0.697671 174.836 3.61116 3.08123 180 7.01506e-015 178.759 179.902 11.7725 179.315 -2.93912e-006 3.13612e-006 0.00716874 -17.0923 65.6676 17.7781 8.13649 25.2326 -3.48774 -175.116 10.4504 -1.46763 4.5067e-006 -1.99009e-005 -1.11907 -1.53254 -22.1154 0.32187 -1.37232e-006 -3.99963e-006 -0.35322 19.2066 68.6119 -20.0571 -8.13649 25.2326 3.48774 
55.7904 118.5 6.59852 2.26866 -0.218504 1.83778 0.353869 -0.538021 -0.237824 0.717385 2.92508 -0.518711 0.724477 4.57004 -0.53121 -8.32265 -8.9746 -4.03183 9.90972 17.0155 -5.30357 65.6638 -6.56569 -4.37204 104.835 8.11651 -14.7699 1.1003e-005 5.74642e-007 3.33813e-006 17.2341 59.4257 -12.8492 -7.13593e-006 -9.0436e-006 -3 8.02895 -4.95145 0.697675 -53.0566 -1.09955 0.0273656 -113.116 5.61019 21.9914 1.64399e-005 -3.64234e-006 -3.06082e-007 -25.8804 83.4761 29.4073 5.53676e-006 9.00343e-007 3 -8.02907 -4.95144 -0.697671 174.818 3.61206 3.09379 180 7.01506e-015 178.757 179.908 11.8309 179.312 -2.93912e-006 3.13612e-006 0.00857799 -17.0988 65.6764 17.7838 8.13649 25.2326 -3.48774 -175.114 10.4406 -1.46935 4.5067e-006 -1.99009e-005 -1.12079 -1.5222 -22.1686 0.324251 -1.37232e-006 -3.99963e-006 -0.354098 19.2019 68.6043 -20.0507 -8.13649 25.2326 3.48774 
